<!DOCTYPE svg PUBLIC "-//W3C//DTD SVG 1.1//EN" "http://www.w3.org/Graphics/SVG/1.1/DTD/svg11.dtd">
<!-- Uploaded to: SVG Repo, www.svgrepo.com, Transformed by: SVG Repo Mixer Tools -->
<svg width="256px" height="256px" viewBox="0 0 48 48" version="1" xmlns="http://www.w3.org/2000/svg" enable-background="new 0 0 48 48" fill="#000000">
<g id="SVGRepo_bgCarrier" stroke-width="0"/>
<g id="SVGRepo_tracerCarrier" stroke-linecap="round" stroke-linejoin="round"/>
<g id="SVGRepo_iconCarrier"> <path fill="#2980b9" d="M41,42H13c-2.2,0-4-1.8-4-4V18c0-2.2,1.8-4,4-4h28c2.2,0,4,1.8,4,4v20C45,40.2,43.2,42,41,42z"/> <path fill="#3498db" d="M35,36H7c-2.2,0-4-1.8-4-4V12c0-2.2,1.8-4,4-4h28c2.2,0,4,1.8,4,4v20C39,34.2,37.2,36,35,36z"/> <circle fill="#ffffff" cx="30" cy="16" r="3"/> <polygon fill="#ceceee" points="17,17.9 8,31 26,31"/> <polygon fill="#ffffff" points="28,23.5 22,31 34,31"/> </g>
</svg>